HIERARCHY
ROOT Hips
{
    OFFSET 0.0 0.0 0.0
    CHANNELS 6 Xposition Yposition Zposition Zrotation Xrotation Yrotation
    JOINT LeftHipJoint
    {
        OFFSET 0.1 0.0 0.0
        CHANNELS 3 Zrotation Xrotation Yrotation
        JOINT LeftUpLeg
        {
            OFFSET 141.07910230240566 0.0 0.0
            CHANNELS 3 Zrotation Xrotation Yrotation
            JOINT LeftLeg
            {
                OFFSET 0.0 0.0 -384.60499815331195
                CHANNELS 3 Zrotation Xrotation Yrotation
                JOINT LeftFoot
                {
                    OFFSET 0.0 0.0 -379.6510470062211
                    CHANNELS 3 Zrotation Xrotation Yrotation
                    End Site
                    {
                        OFFSET 0.0 -0.1 0.0
                    }
                }
            }
        }
    }
    JOINT LowerBack
    {
        OFFSET 0.0 0.0 0.1
        CHANNELS 3 Zrotation Xrotation Yrotation
        JOINT Spine
        {
            OFFSET 0.0 0.0 175.17710171551616
            CHANNELS 3 Zrotation Xrotation Yrotation
            JOINT Spine1
            {
                OFFSET 0.0 0.0 171.03889791794862
                CHANNELS 3 Zrotation Xrotation Yrotation
                JOINT LeftShoulder
                {
                    OFFSET 0.1 0.0 0.0
                    CHANNELS 3 Zrotation Xrotation Yrotation
                    JOINT LeftArm
                    {
                        OFFSET 147.96543901200766 0.0 0.0
                        CHANNELS 3 Zrotation Xrotation Yrotation
                        JOINT LeftForeArm
                        {
                            OFFSET 263.9255193114999 0.0 0.0
                            CHANNELS 3 Zrotation Xrotation Yrotation
                            JOINT LeftHand
                            {
                                OFFSET 100.03127677743188 0.0 0.0
                                CHANNELS 3 Zrotation Xrotation Yrotation
                                End Site
                                {
                                    OFFSET 0.1 0.0 0.0
                                }
                            }
                        }
                    }
                }
                JOINT Neck
                {
                    OFFSET 0.0 0.0 0.1
                    CHANNELS 3 Zrotation Xrotation Yrotation
                    JOINT Neck1
                    {
                        OFFSET 0.0 0.0 123.76790618548254
                        CHANNELS 3 Zrotation Xrotation Yrotation
                        End Site
                        {
                            OFFSET 0.0 0.0 103.56010564211357
                        }
                    }
                }
                JOINT RightShoulder
                {
                    OFFSET -0.1 0.0 0.0
                    CHANNELS 3 Zrotation Xrotation Yrotation
                    JOINT RightArm
                    {
                        OFFSET -147.96543901200766 0.0 0.0
                        CHANNELS 3 Zrotation Xrotation Yrotation
                        JOINT RightForeArm
                        {
                            OFFSET -263.9255193114999 0.0 0.0
                            CHANNELS 3 Zrotation Xrotation Yrotation
                            JOINT RightHand
                            {
                                OFFSET -100.03127677743188 0.0 0.0
                                CHANNELS 3 Zrotation Xrotation Yrotation
                                End Site
                                {
                                    OFFSET -0.1 0.0 0.0
                                }
                            }
                        }
                    }
                }
            }
        }
    }
    JOINT RightHipJoint
    {
        OFFSET -0.1 0.0 0.0
        CHANNELS 3 Zrotation Xrotation Yrotation
        JOINT RightUpLeg
        {
            OFFSET -141.07910230240566 0.0 0.0
            CHANNELS 3 Zrotation Xrotation Yrotation
            JOINT RightLeg
            {
                OFFSET 0.0 0.0 -384.60499815331195
                CHANNELS 3 Zrotation Xrotation Yrotation
                JOINT RightFoot
                {
                    OFFSET 0.0 0.0 -379.6510470062211
                    CHANNELS 3 Zrotation Xrotation Yrotation
                    End Site
                    {
                        OFFSET 0.0 -0.1 0.0
                    }
                }
            }
        }
    }
}
MOTION
Frames: 9
Frame Time: 0.03333333333333333
0.0 0.0 0.0 93.86007529718455 40.56098232779456 -75.799341306857 0.0 0.0 0.0 -3.211370066334801 -6.45555270628673 13.150645120196321 49.93924372688723 42.85038823006962 -25.421260472090268 -3.1805546814635168e-15 0.0 0.0 0.0 0.0 0.0 1.921686704518061 3.899635399364204 4.596264351057456 -18.19862527248102 -1.9284883840902203e-14 9.795658682559876e-15 0.0 0.0 0.0 39.762152912228444 -10.945742648311407 45.38386911262946 -39.83700132075816 3.7378601012338246e-16 1.354451730917243e-16 0.0 0.0 0.0 0.0 0.0 0.0 -11.015263939460331 31.944199598290297 -12.270688161519011 0.0 0.0 0.0 169.5442429953168 -8.336868357836222 -76.58133900322834 62.09342107435938 3.5450955005460696e-15 -2.778632653525425e-16 0.0 0.0 7.951386703658792e-16 0.0 0.0 0.0 -16.785165298190922 -30.444220746891606 3.504123625810502 74.04398782853944 54.64289049842376 -24.32942881449799 -3.1805546814635168e-15 0.0 0.0
0.0 0.0 0.0 94.37087153045351 39.39184170772003 -76.46784007749287 6.361109362927035e-15 0.0 0.0 -2.659244622744032 -5.338374304751168 12.757607734167086 47.21817569735547 42.076035988558225 -23.633197435139543 0.0 0.0 0.0 6.361109362927035e-15 0.0 0.0 1.8674301589470366 3.784133668967159 5.329219281851088 -19.106707311068345 1.6753322019183194e-14 -1.3306838355600239e-14 3.1805546814635168e-15 0.0 0.0 40.891230726741206 -13.046150391285728 44.791162738886484 -41.12884727374081 5.584026993500615e-15 -1.3020786464879302e-15 0.0 0.0 0.0 3.1805546814635168e-15 0.0 0.0 -11.011787455577064 31.964779528873372 -12.900900506298443 3.1805546814635168e-15 0.0 0.0 169.6265766638438 -8.798657650675478 -75.68739788122886 63.35175186520113 -9.905663371449557e-15 -6.9684137619206594e-15 0.0 0.0 7.951386703658792e-16 6.361109362927035e-15 0.0 0.0 -16.023599037024255 -29.290997748496544 5.114328685969358 68.43208789151622 52.44926628625146 -18.676052116331835 -6.3611093629270335e-15 -2.3854160110976376e-15 -1.3241718894150476e-31
0.0 0.0 0.0 93.75822355768607 40.29500327512306 -75.87742203770438 0.0 0.0 -3.1805546814635176e-15 -2.577822403480117 -5.179989885037937 12.381996187279338 46.55930746970452 42.181680911453576 -22.104739255295645 0.0 0.0 0.0 0.0 0.0 -3.1805546814635176e-15 2.1010576764986117 4.259843656917952 5.015536273072863 -19.237599379939173 -9.686452421587828e-15 4.810203522709889e-15 3.1805546814635168e-15 -3.975693351829396e-16 1.1034765745125397e-32 41.96783805259101 -12.485101396278269 46.00264861880852 -42.84866590442244 -1.480390404712099e-15 -5.808840418545014e-16 0.0 0.0 0.0 3.1805546814635168e-15 -3.975693351829396e-16 1.1034765745125397e-32 -8.467795190503377 32.26934749256158 -13.717706343676799 3.1805546814635168e-15 -3.975693351829396e-16 1.1034765745125397e-32 170.93009625239247 -7.399220944110863 -75.27146327727714 61.21762801515054 2.9881491736938175e-15 1.9276604000646284e-15 0.0 0.0 -1.1927080055488188e-15 0.0 0.0 -3.1805546814635176e-15 -16.320324408791716 -29.752708726318275 4.732439641046007 68.19167995465982 52.662757422263695 -18.139010016372914 0.0 0.0 0.0
0.0 0.0 0.0 93.96582091081866 39.50941967778472 -76.45570404417644 6.361109362927032e-15 0.0 0.0 -2.637701801648578 -5.374397967892033 12.198122286944844 46.473260863163915 42.645064195784286 -21.736997266082234 0.0 0.0 6.361109362927032e-15 6.361109362927032e-15 0.0 0.0 2.156262970878001 4.432668756328132 5.3805421713053985 -19.19467820827305 4.704058412306213e-15 7.954072149628857e-16 0.0 0.0 0.0 41.201239389154715 -12.628339258661745 46.160175662962594 -42.95545067618704 4.7548671572407346e-15 5.288750204527614e-15 0.0 0.0 0.0 0.0 0.0 0.0 -9.27642967365154 32.191629407002985 -13.83782548732654 0.0 0.0 0.0 169.39207305132211 -7.193376660551477 -75.27027577336929 63.37371734878233 -9.648057956194962e-15 -8.060791149242588e-15 0.0 0.0 1.1927080055488188e-15 6.361109362927032e-15 0.0 0.0 -15.68103669261176 -29.14330990798632 5.853836444911587 66.71983057097032 51.81229208851648 -17.025778149775988 6.361109362927033e-15 0.0 0.0
0.0 0.0 0.0 94.43701619988038 38.73964166975338 -76.7663582120557 0.0 0.0 3.1805546814635176e-15 -2.5514941528004575 -5.197797542511044 12.095292473286758 45.70341400020344 42.38531749263184 -21.147923063050495 3.1805546814635168e-15 0.0 0.0 0.0 0.0 3.1805546814635176e-15 2.2013435515876543 4.524157458195501 5.330728917739358 -19.373907601929123 -1.1508395847424151e-14 1.2620903702068219e-15 0.0 0.0 0.0 41.9447647337876 -14.06126346066861 46.710282144016716 -43.788318058411846 -1.151504921101465e-14 -1.199870306111942e-15 0.0 0.0 0.0 0.0 0.0 0.0 -10.24764957299603 32.04217634916452 -13.547190580224191 0.0 0.0 0.0 166.79849952947242 -7.717001276398917 -75.72625861800022 64.53930613413915 -1.2043868810499863e-15 1.2985510891592692e-14 0.0 0.0 -3.975693351829395e-15 0.0 0.0 3.1805546814635176e-15 -15.914416346859586 -29.49096995226885 5.59380496928527 67.49600309366816 52.11750897807801 -17.764826660070064 0.0 0.0 -6.3611093629270335e-15
0.0 0.0 0.0 94.6269306906598 38.264095538710436 -76.93505800673692 -6.3611093629270335e-15 0.0 0.0 -3.0992246712306515 -6.29812607894497 11.93222109715558 47.732698022633265 43.391561031280936 -22.60469500906743 0.0 0.0 0.0 -6.3611093629270335e-15 0.0 0.0 2.2257608189596723 4.562686355086884 5.329042481742077 -19.200029636836437 -8.37045336522537e-15 1.8099693515329475e-15 0.0 0.0 0.0 40.069872231598765 -13.613337731622059 46.45153279441487 -42.68438175061475 -1.6430714165771268e-15 -2.349363293846456e-15 0.0 0.0 1.5902773407317584e-15 0.0 0.0 0.0 -11.100154994444324 32.239061362043806 -13.616352974526801 0.0 0.0 0.0 164.34225338623415 -7.101602556541844 -76.39584215620565 66.17289402366619 1.2688102438755892e-14 -1.1114069182962869e-14 0.0 0.0 7.951386703658792e-16 -6.3611093629270335e-15 0.0 0.0 -15.909997532678796 -29.422645446696663 6.507386277070141 67.17829544386254 51.07384776041396 -17.54615157780694 0.0 3.1805546814635164e-15 0.0
0.0 0.0 0.0 94.97755809262047 37.79396548164027 -77.33458699581445 0.0 0.0 0.0 -3.2249409717343247 -6.5545709928102225 12.00031822942796 48.30705458098237 43.56953229694049 -23.41357857229478 0.0 0.0 0.0 0.0 0.0 0.0 2.3214919714268665 4.758909594076444 5.260226287438473 -19.17177958062538 7.077187864635569e-15 -8.481556131696603e-15 3.1805546814635168e-15 0.0 0.0 40.23603253439615 -14.262400193126147 47.13572506574555 -43.17513251467606 -2.6808907042302137e-15 -6.19148620284175e-15 0.0 0.0 1.5902773407317584e-15 3.1805546814635168e-15 0.0 0.0 -12.239412470829668 32.35526850310901 -13.313378012519625 3.1805546814635168e-15 0.0 0.0 164.27034541512595 -6.345258036490302 -76.1137226115616 67.16423806659672 4.224167058439641e-15 -1.807568015174e-14 4.689775441678294e-32 7.951386703658789e-16 -6.75867869810997e-15 0.0 0.0 0.0 -15.530800015026825 -28.85528985438909 7.62959774258637 66.07289921142797 49.88731735089309 -16.970883479900905 0.0 0.0 6.3611093629270335e-15
0.0 0.0 0.0 95.35235676932301 38.022259268698825 -76.85366721054271 0.0 0.0 0.0 -4.263259068920473 -8.342573030678276 11.377012953800675 51.40540308492199 44.53814272697064 -25.90583738586596 0.0 0.0 0.0 0.0 0.0 0.0 2.3905655161077015 4.726203572232427 4.91414850343647 -19.164597468690193 -6.038015482611416e-15 1.1882901832801498e-14 0.0 0.0 0.0 39.05173509381059 -13.869743191147526 46.736586802930105 -43.793452907667756 -1.1739177434502804e-14 4.234319919226892e-16 0.0 0.0 0.0 0.0 0.0 0.0 -12.225696382452863 33.18897749872826 -13.817331664436937 0.0 0.0 0.0 165.62037518932453 -5.685358727483904 -76.0190736284276 67.59399395833836 2.1312311092845845e-16 -3.969976847208134e-15 0.0 0.0 -2.3854160110976376e-15 0.0 0.0 0.0 -15.9039968476833 -28.539360758431247 7.986594379322676 63.92178013635389 48.13434368405193 -14.821242203511385 0.0 0.0 0.0
0.0 0.0 0.0 95.45066058344715 37.80713471112431 -76.4081658051813 0.0 0.0 0.0 -4.485321302711207 -8.554821174534712 10.789922374230388 52.42472776682717 44.90658596276615 -27.184272314247178 0.0 0.0 0.0 0.0 0.0 0.0 2.2490884817510355 4.336162368613837 5.277771846617961 -19.651244959558667 -1.0968654538250936e-14 -1.8996675030925635e-15 -3.1805546814635168e-15 0.0 0.0 40.84802560794984 -14.90332473569875 46.42000504834601 -42.90733414084625 -1.3216882971824226e-15 1.1892718657426989e-15 0.0 0.0 0.0 -3.1805546814635168e-15 0.0 0.0 -11.830565207403524 34.35770520823408 -14.31328478052526 -3.1805546814635168e-15 0.0 0.0 166.3945732007132 -6.272902502551997 -75.17491615801941 68.71614242483301 -7.17995000950921e-15 -1.0502531464814594e-14 0.0 0.0 -1.1927080055488188e-15 0.0 0.0 0.0 -15.989134981338674 -28.05274466473188 8.243319970012342 64.109080791334 47.3688062355291 -13.788247774503427 0.0 0.0 0.0
